<svg width="24" height="24" viewBox="0 0 24 24" fill="none" xmlns="http://www.w3.org/2000/svg">
<path d="M12 1.987C13.3712 0.659745 15.1599 -0.0491343 16.999 0.00591239C18.8381 0.0609591 20.5879 0.875755 21.8891 2.283C23.189 3.68924 23.9424 5.5802 23.9951 7.56825C24.0477 9.55631 23.3956 11.4909 22.1723 12.9753L11.9976 24L1.82538 12.9753C0.600645 11.4901 -0.0521327 9.55388 0.00106001 7.56423C0.0542527 5.57457 0.809379 3.68244 2.11141 2.27628C3.41344 0.870127 5.16359 0.0566459 7.00253 0.0028484C8.84147 -0.0509491 10.6297 0.659019 12 1.987ZM20.1902 4.11741C19.3231 3.18082 18.1578 2.63849 16.9331 2.60156C15.7084 2.56463 14.517 3.03589 13.603 3.91878L12.0012 5.47408L10.3982 3.92008C9.48837 3.03973 8.30268 2.56756 7.08244 2.59966C5.86221 2.63176 4.69912 3.16572 3.82986 4.09287C2.9606 5.02002 2.45048 6.2707 2.40331 7.59042C2.35614 8.91013 2.77546 10.1997 3.57595 11.1967L11.9988 20.3247L20.4217 11.198C21.2188 10.2054 21.6382 8.92252 21.5953 7.60835C21.5523 6.29418 21.0501 5.04659 20.1902 4.11741Z" fill="#6B9AC4"/>
</svg>
