<svg width="27" height="27" viewBox="0 0 27 27" fill="none" xmlns="http://www.w3.org/2000/svg">
<path d="M0 4.73958C0 3.48257 0.499347 2.27704 1.38819 1.38819C2.27704 0.499347 3.48257 0 4.73958 0H21.5104C22.7674 0 23.973 0.499347 24.8618 1.38819C25.7507 2.27704 26.25 3.48257 26.25 4.73958V21.5104C26.25 22.7674 25.7507 23.973 24.8618 24.8618C23.973 25.7507 22.7674 26.25 21.5104 26.25H4.73958C3.48257 26.25 2.27704 25.7507 1.38819 24.8618C0.499347 23.973 0 22.7674 0 21.5104V4.73958ZM4.73958 2.1875C4.06273 2.1875 3.4136 2.45638 2.93499 2.93499C2.45638 3.4136 2.1875 4.06273 2.1875 4.73958V8.02083H8.02083V2.1875H4.73958ZM2.1875 10.2083V16.0417H8.02083V10.2083H2.1875ZM10.2083 10.2083V16.0417H16.0417V10.2083H10.2083ZM18.2292 10.2083V16.0417H24.0625V10.2083H18.2292ZM16.0417 18.2292H10.2083V24.0625H16.0417V18.2292ZM18.2292 24.0625H21.5104C22.1873 24.0625 22.8364 23.7936 23.315 23.315C23.7936 22.8364 24.0625 22.1873 24.0625 21.5104V18.2292H18.2292V24.0625ZM18.2292 8.02083H24.0625V4.73958C24.0625 4.06273 23.7936 3.4136 23.315 2.93499C22.8364 2.45638 22.1873 2.1875 21.5104 2.1875H18.2292V8.02083ZM16.0417 2.1875H10.2083V8.02083H16.0417V2.1875ZM2.1875 18.2292V21.5104C2.1875 22.9192 3.33083 24.0625 4.73958 24.0625H8.02083V18.2292H2.1875Z" fill="#6B9AC4"/>
</svg>
