<svg width="25" height="24" viewBox="0 0 25 24" fill="none" xmlns="http://www.w3.org/2000/svg">
<path d="M12.7679 0C11.1942 0 9.63598 0.310375 8.18213 0.913405C6.72827 1.51643 5.40726 2.40031 4.29452 3.51456C2.04726 5.7649 0.784753 8.81701 0.784753 11.9995C0.775287 14.7701 1.73326 17.457 3.49294 19.5951L1.09631 21.995C0.930039 22.1638 0.817402 22.378 0.772616 22.6108C0.72783 22.8436 0.752902 23.0844 0.844668 23.303C0.944197 23.5189 1.10555 23.7003 1.30823 23.8242C1.51092 23.9481 1.7458 24.0089 1.98306 23.9989H12.7679C15.946 23.9989 18.9939 22.7347 21.2412 20.4844C23.4885 18.234 24.751 15.1819 24.751 11.9995C24.751 8.81701 23.4885 5.7649 21.2412 3.51456C18.9939 1.26423 15.946 0 12.7679 0ZM12.7679 21.599H4.87099L5.98542 20.4831C6.20861 20.2583 6.33388 19.9541 6.33388 19.6371C6.33388 19.3201 6.20861 19.016 5.98542 18.7912C4.41634 17.2217 3.43922 15.156 3.22055 12.946C3.00188 10.736 3.55518 8.51843 4.78619 6.67113C6.01719 4.82383 7.84974 3.46108 9.97162 2.81504C12.0935 2.16901 14.3734 2.27966 16.423 3.12816C18.4725 3.97665 20.1649 5.51049 21.2117 7.46834C22.2585 9.42619 22.5951 11.6869 22.164 13.8654C21.7329 16.0439 20.5609 18.0053 18.8475 19.4154C17.1342 20.8256 14.9857 21.5973 12.7679 21.599Z" fill="#6B9AC4"/>
</svg>
